# xmcd CD database file
#
# Track frame offsets:
#	150
#	19679
#	48102
#	77832
#	93637
#	113948
#	140457
#	171563
#	189456
#	218272
#	236743
#	257413
#	282613
#
# Disc length: 4051 seconds
#
# Revision: 0
# Processed by: cddbd v1.5.2PL0 Copyright (c) Steve Scherf et al.
# Submitted via: CDex 1.51
#
DISCID=b40fd10d
DTITLE=Riverside Hot Six Hamburg - Riverside Hot Six Hamburg
DYEAR=2001
DGENRE=Jazz
TTITLE0=Honey Suckle Rose
TTITLE1=Thin Roof Blues
TTITLE2=Struttin' With Some Barbecue
TTITLE3=Petite Fleur
TTITLE4=Beale Street Blues
TTITLE5=Mack The Knife
TTITLE6=Creole Love Call
TTITLE7=Big Butter And Egg Man
TTITLE8=Lazy River
TTITLE9=Indiana
TTITLE10=Apex Blues
TTITLE11=Sweet Georgia Brown
TTITLE12=Basin Street Blues
EXTD=YEAR: 2001
EXTT0=
EXTT1=
EXTT2=
EXTT3=
EXTT4=
EXTT5=
EXTT6=
EXTT7=
EXTT8=
EXTT9=
EXTT10=
EXTT11=
EXTT12=
PLAYORDER=
